# This file uses centimeters as units for non-parametric coordinates.

mtllib Stick_01.mtl
g default
v -0.481998 -0.085483 -0.037935
v -0.518505 -0.088668 -0.037935
v -0.536758 -0.090262 -0.006200
v -0.518505 -0.088668 0.025538
v -0.481998 -0.085483 0.025538
v -0.463744 -0.083890 -0.006200
v -0.589569 1.007276 -0.122492
v -0.601857 1.006204 -0.122492
v -0.608001 1.005667 -0.111809
v -0.601857 1.006204 -0.101129
v -0.589569 1.007276 -0.101129
v -0.583426 1.007811 -0.111809
v -0.485143 0.089996 -0.030237
v -0.512793 0.087584 -0.030237
v -0.526620 0.086376 -0.006200
v -0.512793 0.087584 0.017840
v -0.485143 0.089996 0.017840
v -0.471317 0.091202 -0.006200
v -0.553598 0.596978 -0.029807
v -0.540021 0.598163 -0.006200
v -0.553598 0.596978 0.017408
v -0.580755 0.594608 0.017408
v -0.594334 0.593423 -0.006200
v -0.580755 0.594608 -0.029807
v -0.593564 0.933327 -0.133260
v -0.581227 0.934403 -0.111809
v -0.593564 0.933327 -0.090359
v -0.618239 0.931174 -0.090359
v -0.630578 0.930097 -0.111809
v -0.618239 0.931174 -0.133260
v -0.572717 0.774538 -0.029976
v -0.600068 0.772153 -0.029976
v -0.613744 0.770959 -0.006200
v -0.600068 0.772153 0.017579
v -0.572717 0.774538 0.017579
v -0.559042 0.775732 -0.006200
v -0.577408 0.813045 -0.055628
v -0.563697 0.814241 -0.031788
v -0.577408 0.813045 -0.007950
v -0.604831 0.810651 -0.007950
v -0.618544 0.809455 -0.031788
v -0.604831 0.810651 -0.055628
v -0.604157 0.895958 0.130468
v -0.590789 0.897124 0.130468
v -0.592779 0.912479 0.113875
v -0.606182 0.911308 0.113875
v -0.574917 0.792595 -0.042004
v -0.602303 0.790205 -0.042004
v -0.615994 0.789010 -0.018199
v -0.612078 0.789351 0.005608
v -0.609883 0.902739 0.122687
v -0.586944 0.904740 0.122687
v -0.565141 0.793449 0.005608
v -0.561225 0.793790 -0.018199
v -0.600669 0.822694 0.081886
v -0.581250 0.824390 0.081886
v -0.575871 0.837815 0.073387
v -0.584581 0.851729 0.063763
v -0.604051 0.850029 0.063763
v -0.609196 0.834907 0.073387
vt 0.063488 0.197741
vt 0.087494 0.189898
vt 0.227380 0.637296
vt 0.203534 0.643966
vt 0.111986 0.182061
vt 0.250989 0.630235
vt 0.136604 0.174267
vt 0.274252 0.622361
vt 0.161025 0.166746
vt 0.297385 0.614140
vt 0.185305 0.159731
vt 0.320737 0.606505
vt 0.209607 0.153295
vt 0.344420 0.599924
vt 0.000000 0.000000
vt 0.000000 0.000000
vt 0.000000 0.000000
vt 0.000000 0.000000
vt 0.000000 0.000000
vt 0.000000 0.000000
vt 0.000000 0.000000
vt 0.000000 0.000000
vt 0.000000 0.000000
vt 0.000000 0.000000
vt 0.000000 0.000000
vt 0.000000 0.000000
vt 0.000000 0.056169
vt 0.028489 0.040824
vt 0.058242 0.028092
vt 0.089412 0.019465
vt 0.121206 0.013584
vt 0.153011 0.007504
vt 0.184529 0.000000
vt 0.371972 0.769225
vt 0.397030 0.771303
vt 0.403344 0.794310
vt 0.379100 0.789291
vt 0.355447 0.767161
vt 0.354783 0.785399
vt 0.542767 0.046843
vt 0.524996 0.000000
vt 0.553514 0.001148
vt 0.563896 0.028691
vt 0.307310 0.793070
vt 0.318660 0.780983
vt 0.330420 0.794588
vt 0.314286 0.813218
vt 0.289266 0.809132
vt 0.297720 0.831399
vt 0.264379 0.817457
vt 0.274565 0.840651
vt 0.419221 0.913962
vt 0.441050 0.916550
vt 0.431157 0.978186
vt 0.420886 0.978752
vt 0.396188 0.911836
vt 0.410575 0.978870
vt 0.374098 0.917698
vt 0.400246 0.979816
vt 0.358282 0.930730
vt 0.390515 0.983941
vt 0.345026 0.945116
vt 0.382480 0.991062
vt 0.328601 0.956047
vt 0.376419 1.000000
vt 0.281946 0.787377
vt 0.257937 0.795797
vt 0.303600 0.777106
vt 0.323506 0.768359
vt 0.344036 0.760636
vt 0.364652 0.754648
vt 0.387484 0.749798
vt 0.378070 0.124474
vt 0.374344 0.155284
vt 0.228923 0.135273
vt 0.231424 0.112039
vt 0.223774 0.154658
vt 0.364100 0.180389
vt 0.350302 0.209418
vt 0.216912 0.176374
vt 0.363741 0.031328
vt 0.367962 0.065412
vt 0.228611 0.069235
vt 0.227019 0.045891
vt 0.374286 0.096819
vt 0.230663 0.091508
vt 0.517144 0.044468
vt 0.506785 0.017276
vt 0.513488 0.134451
vt 0.507265 0.181652
vt 0.496626 0.221239
vt 0.481007 0.265067
vt 0.502588 0.000000
vt 0.510786 0.047157
vt 0.513785 0.092602
vn -0.001135 0.013010 -0.999915
vn -0.001181 0.013528 -0.999908
vn -0.000032 0.000364 -1.000000
vn -0.000034 0.000393 -1.000000
vn -0.863400 -0.067503 -0.499984
vn -0.863479 -0.066517 -0.499980
vn -0.859271 -0.109293 -0.499708
vn -0.859251 -0.109461 -0.499705
vn -0.863479 -0.066517 0.499980
vn -0.863400 -0.067503 0.499984
vn -0.859252 -0.109461 0.499705
vn -0.859271 -0.109293 0.499708
vn -0.001181 0.013528 0.999908
vn -0.001136 0.013010 0.999915
vn -0.000034 0.000393 1.000000
vn -0.000032 0.000364 1.000000
vn 0.861031 0.093311 0.499918
vn 0.860982 0.093789 0.499914
vn 0.859161 0.110229 0.499692
vn 0.859184 0.110032 0.499696
vn 0.860982 0.093789 -0.499914
vn 0.861031 0.093311 -0.499919
vn 0.859184 0.110031 -0.499696
vn 0.859160 0.110229 -0.499693
vn 0.086943 -0.996213 0.000000
vn 0.086943 -0.996213 0.000000
vn 0.086943 -0.996213 0.000000
vn 0.086943 -0.996213 0.000000
vn 0.086943 -0.996213 0.000000
vn 0.086943 -0.996213 0.000000
vn 0.086943 -0.996213 0.000000
vn 0.086943 -0.996213 0.000000
vn -0.086943 0.996213 0.000003
vn -0.086943 0.996213 0.000014
vn -0.086943 0.996213 0.000014
vn -0.086943 0.996213 0.000003
vn -0.086943 0.996213 0.000003
vn -0.086943 0.996213 0.000003
vn -0.086943 0.996213 -0.000007
vn -0.086944 0.996213 -0.000007
vn -0.003819 0.043760 -0.999035
vn -0.003819 0.043760 -0.999035
vn -0.001181 0.013528 -0.999908
vn -0.001135 0.013010 -0.999915
vn -0.866849 0.049756 -0.496082
vn -0.866849 0.049756 -0.496082
vn -0.863479 -0.066517 -0.499980
vn -0.863400 -0.067503 -0.499984
vn -0.866849 0.049756 0.496082
vn -0.866849 0.049756 0.496082
vn -0.863400 -0.067503 0.499984
vn -0.863479 -0.066517 0.499980
vn -0.003819 0.043760 0.999035
vn -0.003819 0.043760 0.999035
vn -0.001136 0.013010 0.999915
vn -0.001181 0.013528 0.999908
vn 0.865425 0.037430 0.499639
vn 0.865425 0.037430 0.499639
vn 0.860982 0.093789 0.499914
vn 0.861031 0.093311 0.499918
vn 0.865425 0.037430 -0.499639
vn 0.865425 0.037430 -0.499639
vn 0.861031 0.093311 -0.499919
vn 0.860982 0.093789 -0.499914
vn 0.851159 -0.215235 -0.478750
vn 0.851159 -0.215235 -0.478750
vn 0.854001 -0.197640 -0.481269
vn 0.853465 -0.201098 -0.480787
vn 0.902773 0.260485 0.342270
vn 0.854386 0.402198 0.329030
vn 0.778747 0.431892 0.454997
vn 0.783692 0.444176 0.434205
vn -0.063594 0.728668 0.681908
vn -0.063594 0.728668 0.681908
vn -0.063594 0.728665 0.681911
vn -0.063594 0.728665 0.681911
vn -0.922594 0.191109 0.335109
vn -0.937725 0.034257 0.345685
vn -0.861558 0.250078 0.441790
vn -0.853055 0.237841 0.464466
vn -0.781614 -0.409941 -0.470137
vn -0.781614 -0.409940 -0.470137
vn -0.786843 -0.397023 -0.472494
vn -0.787995 -0.394114 -0.473010
vn 0.047977 -0.549727 -0.833966
vn 0.047977 -0.549727 -0.833966
vn 0.047051 -0.539100 -0.840927
vn 0.047061 -0.539222 -0.840847
vn 0.860980 -0.143406 -0.488005
vn 0.863230 -0.119314 -0.490508
vn 0.865992 0.025941 -0.499385
vn 0.865992 0.025940 -0.499385
vn 0.806067 0.344908 0.480932
vn 0.825145 0.283200 0.488807
vn 0.865992 0.025941 0.499385
vn 0.865992 0.025941 0.499385
vn -0.041376 0.474086 0.879506
vn -0.039677 0.454618 0.889802
vn -0.012635 0.144770 0.989385
vn -0.012635 0.144770 0.989385
vn -0.846892 0.238837 0.475112
vn -0.847335 0.236512 0.475484
vn -0.844236 0.252226 0.472914
vn -0.844236 0.252226 0.472914
vn -0.853440 -0.152103 -0.498503
vn -0.831902 -0.257770 -0.491420
vn -0.844236 0.252226 -0.472914
vn -0.844236 0.252226 -0.472914
vn 0.031863 -0.365079 -0.930431
vn 0.034713 -0.397732 -0.916845
vn -0.012634 0.144770 -0.989385
vn -0.012634 0.144770 -0.989385
vn -0.000034 0.000393 -1.000000
vn -0.000032 0.000364 -1.000000
vn 0.005560 -0.063700 -0.997954
vn 0.005253 -0.060189 -0.998173
vn -0.859251 -0.109461 -0.499705
vn -0.859271 -0.109293 -0.499708
vn -0.858358 -0.116865 -0.499564
vn -0.856109 -0.133968 -0.499129
vn -0.859271 -0.109293 0.499708
vn -0.859252 -0.109461 0.499705
vn -0.864832 -0.096414 0.492717
vn -0.869692 -0.099310 0.483501
vn -0.000032 0.000364 1.000000
vn -0.000034 0.000393 1.000000
vn 0.000082 -0.000945 0.999999
vn 0.000082 -0.000945 1.000000
vn 0.859184 0.110032 0.499696
vn 0.859161 0.110229 0.499692
vn 0.870214 0.092070 0.483994
vn 0.865399 0.092168 0.492534
vn 0.859160 0.110229 -0.499693
vn 0.859184 0.110031 -0.499696
vn 0.864397 0.054128 -0.499888
vn 0.863032 0.071956 -0.499998
vn 0.853465 -0.201098 -0.480787
vn 0.854001 -0.197640 -0.481269
vn 0.863230 -0.119314 -0.490508
vn 0.860980 -0.143406 -0.488005
vn 0.783692 0.444176 0.434205
vn 0.778747 0.431892 0.454997
vn 0.825145 0.283200 0.488807
vn 0.806067 0.344908 0.480932
vn -0.048879 0.560052 0.827014
vn -0.048879 0.560052 0.827014
vn -0.039677 0.454618 0.889802
vn -0.041376 0.474086 0.879506
vn -0.853055 0.237841 0.464466
vn -0.861558 0.250078 0.441790
vn -0.847335 0.236512 0.475484
vn -0.846892 0.238837 0.475112
vn -0.787995 -0.394114 -0.473010
vn -0.786843 -0.397023 -0.472494
vn -0.831902 -0.257770 -0.491420
vn -0.853440 -0.152103 -0.498503
vn 0.047061 -0.539222 -0.840847
vn 0.047051 -0.539100 -0.840927
vn 0.034713 -0.397732 -0.916845
vn 0.031863 -0.365079 -0.930431
vn 0.060669 -0.695148 0.716302
vn 0.060692 -0.695421 0.716035
vn 0.048038 -0.550421 0.833504
vn 0.048038 -0.550421 0.833504
vn 0.987723 0.156057 0.006978
vn 0.989016 0.127425 0.074896
vn 0.888245 0.408162 -0.210773
vn 0.890225 0.355825 -0.284409
vn -0.069203 0.792942 -0.605355
vn -0.069231 0.793266 -0.604927
vn -0.055064 0.630945 -0.773871
vn -0.055064 0.630945 -0.773871
vn -0.960866 0.212686 -0.177485
vn -0.989486 -0.089322 0.113750
vn -0.996929 -0.053678 0.057014
vn -0.955328 0.166938 -0.243884
vn 0.005253 -0.060189 -0.998173
vn 0.005560 -0.063700 -0.997954
vn 0.047977 -0.549727 -0.833966
vn 0.047977 -0.549727 -0.833966
vn -0.856109 -0.133968 -0.499129
vn -0.858358 -0.116865 -0.499564
vn -0.781614 -0.409940 -0.470137
vn -0.781614 -0.409941 -0.470137
vn -0.869692 -0.099310 0.483501
vn -0.864832 -0.096414 0.492717
vn -0.937725 0.034257 0.345685
vn -0.922594 0.191109 0.335109
vn -0.996929 -0.053678 0.057014
vn -0.989486 -0.089322 0.113750
vn -0.867960 -0.364063 0.337792
vn -0.863871 -0.304117 0.401547
vn -0.063595 0.728671 0.681905
vn -0.063595 0.728671 0.681905
vn -0.063594 0.728668 0.681908
vn -0.063594 0.728668 0.681908
vn 0.934940 -0.172431 0.310087
vn 0.989016 0.127425 0.074896
vn 0.987723 0.156057 0.006978
vn 0.922523 -0.120751 0.366565
vn 0.865399 0.092168 0.492534
vn 0.870214 0.092070 0.483994
vn 0.854386 0.402198 0.329030
vn 0.902773 0.260485 0.342270
vn 0.863032 0.071956 -0.499998
vn 0.864397 0.054128 -0.499888
vn 0.851159 -0.215235 -0.478750
vn 0.851159 -0.215235 -0.478750
vn 0.068430 -0.784077 0.616879
vn 0.068430 -0.784077 0.616879
vn 0.060692 -0.695421 0.716035
vn 0.060669 -0.695148 0.716302
vn 0.939256 -0.199507 0.279276
vn 0.986414 0.154880 0.054767
vn 0.989016 0.127425 0.074896
vn 0.934940 -0.172431 0.310087
vn 0.888245 0.408162 -0.210773
vn 0.989016 0.127425 0.074896
vn 0.986414 0.154880 0.054767
vn 0.881737 0.446375 -0.152610
vn -0.076307 0.874336 -0.479285
vn -0.076307 0.874336 -0.479285
vn -0.069231 0.793266 -0.604927
vn -0.069203 0.792942 -0.605355
vn -0.960844 0.247160 -0.125266
vn -0.994063 -0.065917 0.086566
vn -0.989486 -0.089322 0.113750
vn -0.960866 0.212686 -0.177485
vn -0.867960 -0.364063 0.337792
vn -0.989486 -0.089322 0.113750
vn -0.994063 -0.065917 0.086566
vn -0.867407 -0.395134 0.302448
s off
g Stick_01:polySurface3pCylinder6
usemtl Stick_01:initialShadingGroup
f 13/1/1 14/2/2 24/3/3 19/4/4
f 14/2/5 15/5/6 23/6/7 24/3/8
f 15/5/9 16/7/10 22/8/11 23/6/12
f 16/7/13 17/9/14 21/10/15 22/8/16
f 17/9/17 18/11/18 20/12/19 21/10/20
f 18/11/21 13/13/22 19/14/23 20/12/24
f 5/15/25 4/16/26 3/17/27 6/18/28
f 2/19/29 1/20/30 6/18/31 3/17/32
f 9/21/33 10/22/34 11/23/35 12/24/36
f 9/21/37 12/24/38 7/25/39 8/26/40
f 1/27/41 2/28/42 14/2/43 13/1/44
f 2/28/45 3/29/46 15/5/47 14/2/48
f 3/29/49 4/30/50 16/7/51 15/5/52
f 4/30/53 5/31/54 17/9/55 16/7/56
f 5/31/57 6/32/58 18/11/59 17/9/60
f 6/32/61 1/33/62 13/13/63 18/11/64
f 54/34/65 47/35/66 37/36/67 38/37/68
f 53/38/69 54/34/70 38/37/71 39/39/72
f 51/40/73 52/41/74 45/42/75 46/43/76
f 49/44/77 50/45/78 40/46/79 41/47/80
f 48/48/81 49/44/82 41/47/83 42/49/84
f 47/50/85 48/48/86 42/49/87 37/51/88
f 26/52/89 25/53/90 7/54/91 12/55/92
f 27/56/93 26/52/94 12/55/95 11/57/96
f 28/58/97 27/56/98 11/57/99 10/59/100
f 29/60/101 28/58/102 10/59/103 9/61/104
f 30/62/105 29/60/106 9/61/107 8/63/108
f 25/64/109 30/62/110 8/63/111 7/65/112
f 19/4/113 24/3/114 32/66/115 31/67/116
f 24/3/117 23/6/118 33/68/119 32/66/120
f 23/6/121 22/8/122 34/69/123 33/68/124
f 22/8/125 21/10/126 35/70/127 34/69/128
f 21/10/129 20/12/130 36/71/131 35/70/132
f 20/12/133 19/14/134 31/72/135 36/71/136
f 38/37/137 37/36/138 25/53/139 26/52/140
f 39/39/141 38/37/142 26/52/143 27/56/144
f 40/46/145 39/39/146 27/56/147 28/58/148
f 41/47/149 40/46/150 28/58/151 29/60/152
f 42/49/153 41/47/154 29/60/155 30/62/156
f 37/51/157 42/49/158 30/62/159 25/64/160
f 55/73/161 56/74/162 44/75/163 43/76/164
f 52/77/165 57/78/166 58/79/167 45/80/168
f 58/81/169 59/82/170 46/83/171 45/84/172
f 59/82/173 60/85/174 51/86/175 46/83/176
f 31/67/177 32/66/178 48/48/179 47/50/180
f 32/66/181 33/68/182 49/44/183 48/48/184
f 33/68/185 34/69/186 50/45/187 49/44/188
f 51/86/189 60/85/190 55/73/191 43/76/192
f 43/87/193 44/88/194 52/41/195 51/40/196
f 56/74/197 57/78/198 52/77/199 44/75/200
f 35/70/201 36/71/202 54/34/203 53/38/204
f 36/71/205 31/72/206 47/35/207 54/34/208
f 34/89/209 35/90/210 56/74/211 55/73/212
f 35/90/213 53/91/214 57/78/215 56/74/216
f 58/79/217 57/78/218 53/91/219 39/92/220
f 39/93/221 40/94/222 59/82/223 58/81/224
f 40/94/225 50/95/226 60/85/227 59/82/228
f 55/73/229 60/85/230 50/95/231 34/89/232
