# This file uses centimeters as units for non-parametric coordinates.

mtllib Stick_02.mtl
g default
v 0.537799 -0.067867 0.029198
v 0.573196 -0.067867 0.019713
v 0.582680 -0.067867 -0.015683
v 0.556767 -0.067867 -0.041595
v 0.521371 -0.067867 -0.032110
v 0.511886 -0.067867 0.003286
v 0.579070 1.010371 0.107728
v 0.590985 1.010371 0.104536
v 0.594177 1.010371 0.092621
v 0.585454 1.010371 0.083900
v 0.573541 1.010371 0.087092
v 0.570349 1.010371 0.099007
v 0.524095 0.107219 0.024900
v 0.550906 0.107219 0.017716
v 0.558089 0.107219 -0.009094
v 0.538463 0.107219 -0.028721
v 0.511652 0.107219 -0.021537
v 0.504468 0.107219 0.005273
v 0.547280 0.618236 0.018243
v 0.528004 0.618236 -0.001034
v 0.535059 0.618236 -0.027363
v 0.561391 0.618236 -0.034419
v 0.580667 0.618236 -0.015144
v 0.573612 0.618236 0.011188
v 0.583745 0.875921 0.101352
v 0.566752 0.885003 0.085786
v 0.573686 0.894086 0.063809
v 0.597610 0.894086 0.057398
v 0.614603 0.885003 0.072964
v 0.607669 0.875921 0.094942
v 0.550809 0.784708 0.017472
v 0.577329 0.784708 0.010367
v 0.584435 0.784708 -0.016153
v 0.565021 0.784708 -0.035568
v 0.538501 0.784708 -0.028462
v 0.531395 0.784708 -0.001942
v 0.558466 0.828665 0.051524
v 0.539264 0.835553 0.033042
v 0.546652 0.842439 0.007434
v 0.573242 0.842439 0.000310
v 0.592443 0.835553 0.018792
v 0.585055 0.828665 0.044400
v 0.505900 0.894329 -0.142879
v 0.492939 0.894329 -0.139405
v 0.497860 0.909799 -0.123546
v 0.510854 0.909799 -0.127027
v 0.554524 0.814965 0.037547
v 0.581076 0.814965 0.030432
v 0.588191 0.814965 -0.004736
v 0.578232 0.814965 -0.026714
v 0.512856 0.901583 -0.136687
v 0.490615 0.901583 -0.130727
v 0.532723 0.814965 -0.014521
v 0.535085 0.814965 0.009492
v 0.544711 0.847188 -0.096702
v 0.525882 0.847188 -0.091656
v 0.521778 0.860095 -0.081759
v 0.531481 0.874713 -0.074394
v 0.550360 0.874713 -0.079453
v 0.554091 0.860095 -0.090417
vt 0.063488 0.197741
vt 0.087494 0.189898
vt 0.227380 0.637296
vt 0.203534 0.643966
vt 0.111986 0.182061
vt 0.250989 0.630235
vt 0.136604 0.174267
vt 0.274252 0.622361
vt 0.161025 0.166746
vt 0.297385 0.614140
vt 0.185305 0.159731
vt 0.320737 0.606505
vt 0.209607 0.153295
vt 0.344420 0.599924
vt 0.000000 0.000000
vt 0.000000 0.000000
vt 0.000000 0.000000
vt 0.000000 0.000000
vt 0.000000 0.000000
vt 0.000000 0.000000
vt 0.000000 0.000000
vt 0.000000 0.000000
vt 0.000000 0.000000
vt 0.000000 0.000000
vt 0.000000 0.000000
vt 0.000000 0.000000
vt 0.000000 0.056169
vt 0.028489 0.040824
vt 0.058242 0.028092
vt 0.089412 0.019465
vt 0.121206 0.013584
vt 0.153011 0.007504
vt 0.184529 0.000000
vt 0.371972 0.769225
vt 0.397030 0.771303
vt 0.403344 0.794310
vt 0.379100 0.789291
vt 0.355447 0.767161
vt 0.354783 0.785399
vt 0.542767 0.046843
vt 0.524996 0.000000
vt 0.553514 0.001148
vt 0.563896 0.028691
vt 0.307310 0.793070
vt 0.318660 0.780983
vt 0.330420 0.794588
vt 0.314286 0.813218
vt 0.289266 0.809132
vt 0.297720 0.831399
vt 0.264379 0.817457
vt 0.274565 0.840651
vt 0.419221 0.913962
vt 0.441050 0.916550
vt 0.431157 0.978186
vt 0.420886 0.978752
vt 0.396188 0.911836
vt 0.410575 0.978870
vt 0.374098 0.917698
vt 0.400246 0.979816
vt 0.358282 0.930730
vt 0.390515 0.983941
vt 0.345026 0.945116
vt 0.382480 0.991062
vt 0.328601 0.956047
vt 0.376419 1.000000
vt 0.281946 0.787377
vt 0.257937 0.795797
vt 0.303600 0.777106
vt 0.323506 0.768359
vt 0.344036 0.760636
vt 0.364652 0.754648
vt 0.387484 0.749798
vt 0.378070 0.124474
vt 0.374344 0.155284
vt 0.228923 0.135273
vt 0.231424 0.112039
vt 0.223774 0.154658
vt 0.364100 0.180389
vt 0.350302 0.209418
vt 0.216912 0.176374
vt 0.363741 0.031328
vt 0.367962 0.065412
vt 0.228611 0.069235
vt 0.227019 0.045891
vt 0.374286 0.096819
vt 0.230663 0.091508
vt 0.517144 0.044468
vt 0.506785 0.017276
vt 0.513488 0.134451
vt 0.507265 0.181652
vt 0.496626 0.221239
vt 0.481007 0.265067
vt 0.502588 0.000000
vt 0.510786 0.047157
vt 0.513785 0.092602
vn 0.258797 0.013059 0.965843
vn 0.258795 0.013580 0.965837
vn 0.258819 0.000371 0.965926
vn 0.258819 0.000402 0.965926
vn 0.965897 0.007820 0.258810
vn 0.965889 0.008809 0.258808
vn 0.965341 -0.034785 0.258662
vn 0.965336 -0.034941 0.258660
vn 0.707080 0.008809 -0.707079
vn 0.707085 0.007820 -0.707085
vn 0.706675 -0.034941 -0.706675
vn 0.706679 -0.034785 -0.706679
vn -0.258795 0.013580 -0.965837
vn -0.258797 0.013059 -0.965843
vn -0.258819 0.000401 -0.965926
vn -0.258819 0.000371 -0.965926
vn -0.965768 0.018096 -0.258777
vn -0.965759 0.018576 -0.258775
vn -0.965309 0.035727 -0.258655
vn -0.965315 0.035541 -0.258657
vn -0.706984 0.018576 0.706985
vn -0.706991 0.018096 0.706991
vn -0.706659 0.035541 0.706661
vn -0.706654 0.035728 0.706656
vn 0.000000 -1.000000 0.000000
vn 0.000000 -1.000000 0.000000
vn 0.000000 -1.000000 0.000000
vn 0.000000 -1.000000 0.000000
vn 0.000000 -1.000000 0.000000
vn 0.000000 -1.000000 0.000000
vn 0.000000 -1.000000 0.000000
vn 0.000000 -1.000000 0.000000
vn 0.000000 1.000000 -0.000001
vn 0.000000 1.000000 0.000000
vn 0.000000 1.000000 0.000000
vn 0.000000 1.000000 -0.000001
vn 0.000000 1.000000 -0.000001
vn 0.000000 1.000000 -0.000001
vn 0.000000 1.000000 -0.000002
vn 0.000000 1.000000 -0.000002
vn 0.258569 0.043927 0.964993
vn 0.258569 0.043927 0.964993
vn 0.258795 0.013580 0.965837
vn 0.258797 0.013059 0.965843
vn 0.958358 0.124934 0.256791
vn 0.958358 0.124934 0.256791
vn 0.965889 0.008809 0.258808
vn 0.965897 0.007820 0.258810
vn 0.701567 0.124934 -0.701567
vn 0.701567 0.124934 -0.701567
vn 0.707085 0.007820 -0.707085
vn 0.707080 0.008809 -0.707079
vn -0.258569 0.043927 -0.964993
vn -0.258569 0.043927 -0.964993
vn -0.258797 0.013059 -0.965843
vn -0.258795 0.013580 -0.965837
vn -0.965230 -0.037955 -0.258632
vn -0.965230 -0.037955 -0.258632
vn -0.965759 0.018576 -0.258775
vn -0.965768 0.018096 -0.258777
vn -0.706598 -0.037954 0.706596
vn -0.706598 -0.037954 0.706597
vn -0.706991 0.018096 0.706991
vn -0.706984 0.018576 0.706985
vn -0.750443 -0.271901 0.602416
vn -0.741713 -0.345841 0.574679
vn -0.723005 -0.303486 0.620612
vn -0.726055 -0.341681 0.596740
vn -0.989326 0.122848 -0.078380
vn -0.963898 0.259603 -0.059228
vn -0.857319 0.510202 -0.068545
vn -0.874910 0.480350 -0.061612
vn -0.176491 0.731439 -0.658671
vn -0.176491 0.731439 -0.658671
vn -0.176491 0.731438 -0.658673
vn -0.176491 0.731438 -0.658673
vn 0.794754 0.325520 -0.512252
vn 0.819196 0.140081 -0.556143
vn 0.734753 0.403739 -0.545098
vn 0.726979 0.366160 -0.580886
vn 0.923343 -0.333633 0.190068
vn 0.940391 -0.268667 0.208523
vn 0.878819 -0.461062 0.122875
vn 0.869403 -0.482765 0.105246
vn 0.202565 -0.622459 0.755984
vn 0.202911 -0.620773 0.757276
vn 0.171045 -0.750502 0.638350
vn 0.171333 -0.749520 0.639425
vn -0.711941 -0.157238 0.684409
vn -0.710921 -0.148893 0.687330
vn -0.696086 -0.056869 0.715702
vn -0.696086 -0.056869 0.715702
vn -0.937213 0.296670 -0.183355
vn -0.938747 0.290067 -0.186054
vn -0.960647 0.054859 -0.272302
vn -0.960647 0.054859 -0.272301
vn -0.223441 0.504670 -0.833896
vn -0.222940 0.507968 -0.832025
vn -0.254125 0.189581 -0.948409
vn -0.254125 0.189581 -0.948409
vn 0.715680 0.274063 -0.642411
vn 0.715952 0.277036 -0.640830
vn 0.709839 0.223310 -0.668028
vn 0.709839 0.223310 -0.668028
vn 0.959678 -0.163674 0.228538
vn 0.958242 -0.178632 0.223302
vn 0.945638 0.100241 0.309386
vn 0.945638 0.100241 0.309386
vn 0.238221 -0.390937 0.889055
vn 0.239408 -0.379962 0.893483
vn 0.258643 -0.036787 0.965272
vn 0.258643 -0.036787 0.965272
vn 0.258819 0.000402 0.965926
vn 0.258819 0.000371 0.965926
vn 0.257443 -0.102975 0.960791
vn 0.257380 -0.105320 0.960554
vn 0.965336 -0.034941 0.258660
vn 0.965341 -0.034785 0.258662
vn 0.965939 -0.051740 0.253543
vn 0.965674 -0.067595 0.250809
vn 0.706679 -0.034785 -0.706679
vn 0.706675 -0.034941 -0.706675
vn 0.719237 -0.021838 -0.694421
vn 0.726904 -0.022813 -0.686360
vn -0.258819 0.000371 -0.965926
vn -0.258819 0.000401 -0.965926
vn -0.258819 -0.001017 -0.965925
vn -0.258819 -0.001017 -0.965925
vn -0.965315 0.035541 -0.258657
vn -0.965309 0.035727 -0.258655
vn -0.972688 0.016040 -0.231561
vn -0.970291 0.016839 -0.241355
vn -0.706654 0.035728 0.706656
vn -0.706659 0.035541 0.706661
vn -0.721353 -0.035278 0.691669
vn -0.716597 -0.016554 0.697291
vn -0.726055 -0.341681 0.596740
vn -0.723005 -0.303486 0.620612
vn -0.710921 -0.148893 0.687330
vn -0.711941 -0.157238 0.684409
vn -0.874910 0.480350 -0.061612
vn -0.857319 0.510202 -0.068545
vn -0.938747 0.290067 -0.186054
vn -0.937213 0.296670 -0.183355
vn -0.166521 0.765539 -0.621466
vn -0.166521 0.765539 -0.621466
vn -0.222940 0.507968 -0.832025
vn -0.223441 0.504670 -0.833896
vn 0.726979 0.366160 -0.580886
vn 0.734753 0.403739 -0.545098
vn 0.715952 0.277036 -0.640830
vn 0.715680 0.274063 -0.642411
vn 0.869403 -0.482765 0.105246
vn 0.878819 -0.461062 0.122875
vn 0.958242 -0.178632 0.223302
vn 0.959678 -0.163674 0.228538
vn 0.171333 -0.749520 0.639425
vn 0.171045 -0.750502 0.638350
vn 0.239408 -0.379962 0.893483
vn 0.238221 -0.390937 0.889055
vn -0.177020 -0.729526 -0.660648
vn -0.176019 -0.733131 -0.656914
vn -0.169058 -0.757194 -0.630934
vn -0.169058 -0.757194 -0.630934
vn -0.891211 -0.174455 0.418698
vn -0.965493 -0.012080 0.260150
vn -0.876710 0.259730 0.404869
vn -0.759926 0.163275 0.629169
vn 0.110344 0.904565 0.411809
vn 0.106438 0.911525 0.397231
vn 0.137099 0.848179 0.511661
vn 0.137099 0.848179 0.511661
vn 0.908156 0.372263 -0.191503
vn 0.910868 0.097016 -0.401132
vn 0.806924 0.173567 -0.564578
vn 0.818480 0.484430 -0.308898
vn 0.257380 -0.105320 0.960554
vn 0.257443 -0.102975 0.960791
vn 0.202911 -0.620773 0.757276
vn 0.202565 -0.622459 0.755984
vn 0.965674 -0.067595 0.250809
vn 0.965939 -0.051740 0.253543
vn 0.940391 -0.268667 0.208523
vn 0.923343 -0.333633 0.190068
vn 0.726904 -0.022813 -0.686360
vn 0.719237 -0.021838 -0.694421
vn 0.819196 0.140081 -0.556143
vn 0.794754 0.325520 -0.512252
vn 0.806924 0.173567 -0.564578
vn 0.910868 0.097016 -0.401132
vn 0.787189 -0.211040 -0.579479
vn 0.691311 -0.119031 -0.712685
vn -0.176491 0.731440 -0.658670
vn -0.176491 0.731440 -0.658670
vn -0.176491 0.731439 -0.658671
vn -0.176491 0.731439 -0.658671
vn -0.957621 -0.284460 0.045209
vn -0.965493 -0.012080 0.260150
vn -0.891211 -0.174455 0.418698
vn -0.878950 -0.443006 0.176616
vn -0.970291 0.016839 -0.241355
vn -0.972688 0.016040 -0.231561
vn -0.963898 0.259603 -0.059228
vn -0.989326 0.122848 -0.078380
vn -0.716597 -0.016554 0.697291
vn -0.721353 -0.035278 0.691669
vn -0.741713 -0.345841 0.574679
vn -0.750443 -0.271901 0.602416
vn -0.180354 -0.717230 -0.673092
vn -0.180354 -0.717230 -0.673092
vn -0.176019 -0.733131 -0.656914
vn -0.177020 -0.729526 -0.660648
vn -0.975417 -0.220299 -0.005533
vn -0.984741 0.049191 0.166927
vn -0.965493 -0.012080 0.260150
vn -0.957621 -0.284460 0.045209
vn -0.876710 0.259730 0.404869
vn -0.965493 -0.012080 0.260150
vn -0.984741 0.049191 0.166927
vn -0.904750 0.291981 0.310120
vn 0.093832 0.931968 0.350186
vn 0.093832 0.931968 0.350186
vn 0.106438 0.911525 0.397231
vn 0.110344 0.904565 0.411809
vn 0.938437 0.317414 -0.136328
vn 0.940583 0.047134 -0.336277
vn 0.910868 0.097016 -0.401132
vn 0.908156 0.372263 -0.191503
vn 0.787189 -0.211040 -0.579479
vn 0.910868 0.097016 -0.401132
vn 0.940583 0.047134 -0.336277
vn 0.822617 -0.251674 -0.509864
s off
g Stick_02:polySurface7pCylinder6
usemtl Stick_02:initialShadingGroup
f 13/1/1 14/2/2 24/3/3 19/4/4
f 14/2/5 15/5/6 23/6/7 24/3/8
f 15/5/9 16/7/10 22/8/11 23/6/12
f 16/7/13 17/9/14 21/10/15 22/8/16
f 17/9/17 18/11/18 20/12/19 21/10/20
f 18/11/21 13/13/22 19/14/23 20/12/24
f 5/15/25 4/16/26 3/17/27 6/18/28
f 2/19/29 1/20/30 6/18/31 3/17/32
f 9/21/33 10/22/34 11/23/35 12/24/36
f 9/21/37 12/24/38 7/25/39 8/26/40
f 1/27/41 2/28/42 14/2/43 13/1/44
f 2/28/45 3/29/46 15/5/47 14/2/48
f 3/29/49 4/30/50 16/7/51 15/5/52
f 4/30/53 5/31/54 17/9/55 16/7/56
f 5/31/57 6/32/58 18/11/59 17/9/60
f 6/32/61 1/33/62 13/13/63 18/11/64
f 54/34/65 47/35/66 37/36/67 38/37/68
f 53/38/69 54/34/70 38/37/71 39/39/72
f 51/40/73 52/41/74 45/42/75 46/43/76
f 49/44/77 50/45/78 40/46/79 41/47/80
f 48/48/81 49/44/82 41/47/83 42/49/84
f 47/50/85 48/48/86 42/49/87 37/51/88
f 26/52/89 25/53/90 7/54/91 12/55/92
f 27/56/93 26/52/94 12/55/95 11/57/96
f 28/58/97 27/56/98 11/57/99 10/59/100
f 29/60/101 28/58/102 10/59/103 9/61/104
f 30/62/105 29/60/106 9/61/107 8/63/108
f 25/64/109 30/62/110 8/63/111 7/65/112
f 19/4/113 24/3/114 32/66/115 31/67/116
f 24/3/117 23/6/118 33/68/119 32/66/120
f 23/6/121 22/8/122 34/69/123 33/68/124
f 22/8/125 21/10/126 35/70/127 34/69/128
f 21/10/129 20/12/130 36/71/131 35/70/132
f 20/12/133 19/14/134 31/72/135 36/71/136
f 38/37/137 37/36/138 25/53/139 26/52/140
f 39/39/141 38/37/142 26/52/143 27/56/144
f 40/46/145 39/39/146 27/56/147 28/58/148
f 41/47/149 40/46/150 28/58/151 29/60/152
f 42/49/153 41/47/154 29/60/155 30/62/156
f 37/51/157 42/49/158 30/62/159 25/64/160
f 55/73/161 56/74/162 44/75/163 43/76/164
f 52/77/165 57/78/166 58/79/167 45/80/168
f 58/81/169 59/82/170 46/83/171 45/84/172
f 59/82/173 60/85/174 51/86/175 46/83/176
f 31/67/177 32/66/178 48/48/179 47/50/180
f 32/66/181 33/68/182 49/44/183 48/48/184
f 33/68/185 34/69/186 50/45/187 49/44/188
f 51/86/189 60/85/190 55/73/191 43/76/192
f 43/87/193 44/88/194 52/41/195 51/40/196
f 56/74/197 57/78/198 52/77/199 44/75/200
f 35/70/201 36/71/202 54/34/203 53/38/204
f 36/71/205 31/72/206 47/35/207 54/34/208
f 34/89/209 35/90/210 56/74/211 55/73/212
f 35/90/213 53/91/214 57/78/215 56/74/216
f 58/79/217 57/78/218 53/91/219 39/92/220
f 39/93/221 40/94/222 59/82/223 58/81/224
f 40/94/225 50/95/226 60/85/227 59/82/228
f 55/73/229 60/85/230 50/95/231 34/89/232
