# This file uses centimeters as units for non-parametric coordinates.

mtllib Stick_03.mtl
g default
v -0.692913 0.828857 -0.031737
v -0.693586 0.865497 -0.031737
v -0.693920 0.883818 0.000000
v -0.693586 0.865497 0.031737
v -0.692913 0.828857 0.031737
v -0.692579 0.810538 0.000000
v 0.693575 0.854262 -0.031737
v 0.692903 0.890903 -0.031737
v 0.692568 0.909221 0.000000
v 0.692903 0.890903 0.031737
v 0.693575 0.854262 0.031737
v 0.693910 0.835944 0.000000
v -0.517633 0.819944 -0.024037
v -0.518142 0.847695 -0.024037
v -0.518396 0.861571 0.000000
v -0.518142 0.847695 0.024037
v -0.517633 0.819944 0.024037
v -0.517380 0.806068 0.000000
v -0.007147 0.853419 -0.023608
v -0.006897 0.839791 0.000000
v -0.007147 0.853419 0.023608
v -0.007645 0.880675 0.023608
v -0.007895 0.894303 0.000000
v -0.007645 0.880675 -0.023608
v 0.503285 0.871854 -0.024034
v 0.503539 0.857979 0.000000
v 0.503285 0.871854 0.024034
v 0.502776 0.899601 0.024034
v 0.502523 0.913474 0.000000
v 0.502776 0.899601 -0.024034
vt 0.873843 0.038946
vt 0.873973 0.058934
vt 0.504694 0.059740
vt 0.505341 0.040162
vt 0.874001 0.079198
vt 0.504367 0.079314
vt 0.874005 0.099465
vt 0.504671 0.098889
vt 0.873906 0.119460
vt 0.505295 0.118476
vt 0.873507 0.139193
vt 0.505597 0.138092
vt 0.873414 0.019224
vt 0.505666 0.020556
vt 0.767614 0.327104
vt 0.767614 0.218047
vt 0.876672 0.163518
vt 0.876672 0.381633
vt 0.985729 0.218047
vt 0.985729 0.327104
vt 0.639166 0.383524
vt 0.528235 0.328059
vt 0.528235 0.217127
vt 0.639166 0.161662
vt 0.750097 0.217127
vt 0.750097 0.328059
vt 0.994620 0.029778
vt 0.998341 0.054270
vt 0.999651 0.078990
vt 0.998428 0.103715
vt 0.994794 0.128226
vt 0.991361 0.152798
vt 0.991100 0.005236
vt 0.137294 0.038828
vt 0.137874 0.018847
vt 0.137683 0.138755
vt 0.137166 0.118768
vt 0.137016 0.098755
vt 0.137023 0.078796
vt 0.137080 0.058837
vt 0.000192 0.026143
vt 0.002047 0.000000
vt 0.001761 0.157104
vt 0.000000 0.130951
vt 0.000566 0.104750
vt 0.001161 0.078546
vt 0.000662 0.052343
vn 0.013057 0.000239 -0.999915
vn 0.013577 0.000249 -0.999908
vn -0.000014 0.000000 -1.000000
vn 0.000021 0.000000 -1.000000
vn -0.008047 0.865997 -0.499985
vn -0.007058 0.866008 -0.499981
vn -0.043859 0.865027 -0.499804
vn -0.044096 0.865017 -0.499801
vn -0.007058 0.866008 0.499981
vn -0.008047 0.865997 0.499985
vn -0.044096 0.865017 0.499801
vn -0.043859 0.865027 0.499804
vn 0.013577 0.000249 0.999908
vn 0.013057 0.000239 0.999915
vn 0.000021 0.000000 1.000000
vn -0.000014 0.000000 1.000000
vn 0.033957 -0.865405 0.499920
vn 0.034437 -0.865389 0.499916
vn 0.044121 -0.865015 0.499802
vn 0.043849 -0.865027 0.499806
vn 0.034437 -0.865389 -0.499916
vn 0.033957 -0.865405 -0.499920
vn 0.043849 -0.865027 -0.499806
vn 0.044121 -0.865015 -0.499802
vn -0.999832 -0.018320 0.000000
vn -0.999832 -0.018320 0.000000
vn -0.999832 -0.018320 0.000000
vn -0.999832 -0.018320 0.000000
vn -0.999832 -0.018321 0.000000
vn -0.999832 -0.018321 0.000000
vn -0.999832 -0.018320 0.000000
vn -0.999832 -0.018320 0.000000
vn 0.999832 0.018320 0.000000
vn 0.999832 0.018320 0.000000
vn 0.999832 0.018320 0.000000
vn 0.999832 0.018320 0.000000
vn 0.999832 0.018320 0.000000
vn 0.999832 0.018320 0.000000
vn 0.999832 0.018320 0.000000
vn 0.999832 0.018320 0.000000
vn 0.043919 0.000805 -0.999035
vn 0.043919 0.000805 -0.999035
vn 0.013577 0.000249 -0.999908
vn 0.013057 0.000239 -0.999915
vn 0.109171 0.861385 -0.496082
vn 0.109171 0.861385 -0.496082
vn -0.007058 0.866008 -0.499981
vn -0.008047 0.865997 -0.499985
vn 0.109171 0.861385 0.496082
vn 0.109171 0.861385 0.496082
vn -0.008047 0.865997 0.499985
vn -0.007058 0.866008 0.499981
vn 0.043919 0.000805 0.999035
vn 0.043919 0.000805 0.999035
vn 0.013057 0.000239 0.999915
vn 0.013577 0.000249 0.999908
vn -0.022094 -0.865951 0.499640
vn -0.022094 -0.865951 0.499640
vn 0.034437 -0.865389 0.499916
vn 0.033957 -0.865405 0.499920
vn -0.022094 -0.865951 -0.499640
vn -0.022094 -0.865951 -0.499640
vn 0.033957 -0.865405 -0.499920
vn 0.034437 -0.865389 -0.499916
vn 0.044121 -0.865015 -0.499802
vn 0.043849 -0.865027 -0.499806
vn -0.008797 -0.866068 -0.499848
vn -0.009993 -0.866064 -0.499833
vn 0.043849 -0.865027 0.499806
vn 0.044121 -0.865015 0.499802
vn -0.009993 -0.866064 0.499833
vn -0.008797 -0.866068 0.499848
vn -0.000014 0.000000 1.000000
vn 0.000021 0.000000 1.000000
vn -0.013359 -0.000245 0.999911
vn -0.012632 -0.000231 0.999920
vn -0.043859 0.865027 0.499804
vn -0.044096 0.865017 0.499801
vn -0.016369 0.865871 0.500000
vn -0.016846 0.865862 0.500000
vn -0.044096 0.865017 -0.499801
vn -0.043859 0.865027 -0.499804
vn -0.016846 0.865861 -0.500000
vn -0.016369 0.865871 -0.500000
vn 0.000021 0.000000 -1.000000
vn -0.000014 0.000000 -1.000000
vn -0.012632 -0.000232 -0.999920
vn -0.013359 -0.000245 -0.999911
vn -0.009993 -0.866064 -0.499833
vn -0.008797 -0.866068 -0.499848
vn -0.099806 -0.862195 -0.496648
vn -0.099806 -0.862195 -0.496648
vn -0.008797 -0.866068 0.499848
vn -0.009993 -0.866064 0.499833
vn -0.099806 -0.862195 0.496648
vn -0.099806 -0.862195 0.496648
vn -0.012632 -0.000231 0.999920
vn -0.013359 -0.000245 0.999911
vn -0.040513 -0.000742 0.999179
vn -0.040513 -0.000742 0.999179
vn -0.016846 0.865862 0.500000
vn -0.016369 0.865871 0.500000
vn 0.019375 0.865988 0.499689
vn 0.019375 0.865988 0.499689
vn -0.016369 0.865871 -0.500000
vn -0.016846 0.865861 -0.500000
vn 0.019375 0.865988 -0.499690
vn 0.019375 0.865988 -0.499690
vn -0.013359 -0.000245 -0.999911
vn -0.012632 -0.000232 -0.999920
vn -0.040513 -0.000742 -0.999179
vn -0.040513 -0.000742 -0.999179
s off
g Stick_03:polySurface2pCylinder6
usemtl Stick_03:initialShadingGroup
f 13/1/1 14/2/2 24/3/3 19/4/4
f 14/2/5 15/5/6 23/6/7 24/3/8
f 15/5/9 16/7/10 22/8/11 23/6/12
f 16/7/13 17/9/14 21/10/15 22/8/16
f 17/9/17 18/11/18 20/12/19 21/10/20
f 18/13/21 13/1/22 19/4/23 20/14/24
f 5/15/25 4/16/26 3/17/27 6/18/28
f 2/19/29 1/20/30 6/18/31 3/17/32
f 9/21/33 10/22/34 11/23/35 12/24/36
f 9/21/37 12/24/38 7/25/39 8/26/40
f 1/27/41 2/28/42 14/2/43 13/1/44
f 2/28/45 3/29/46 15/5/47 14/2/48
f 3/29/49 4/30/50 16/7/51 15/5/52
f 4/30/53 5/31/54 17/9/55 16/7/56
f 5/31/57 6/32/58 18/11/59 17/9/60
f 6/33/61 1/27/62 13/1/63 18/13/64
f 20/14/65 19/4/66 25/34/67 26/35/68
f 21/10/69 20/12/70 26/36/71 27/37/72
f 22/8/73 21/10/74 27/37/75 28/38/76
f 23/6/77 22/8/78 28/38/79 29/39/80
f 24/3/81 23/6/82 29/39/83 30/40/84
f 19/4/85 24/3/86 30/40/87 25/34/88
f 26/35/89 25/34/90 7/41/91 12/42/92
f 27/37/93 26/36/94 12/43/95 11/44/96
f 28/38/97 27/37/98 11/44/99 10/45/100
f 29/39/101 28/38/102 10/45/103 9/46/104
f 30/40/105 29/39/106 9/46/107 8/47/108
f 25/34/109 30/40/110 8/47/111 7/41/112
