# This file uses centimeters as units for non-parametric coordinates.

mtllib Branch_01.mtl
g default
v 0.169636 -0.013066 -0.123248
v 0.064795 -0.013066 -0.199419
v -0.064795 -0.013066 -0.199419
v -0.169636 -0.013066 -0.123248
v -0.209682 -0.013066 0.000000
v -0.169636 -0.013066 0.123248
v -0.064795 -0.013066 0.199419
v 0.064795 -0.013066 0.199419
v 0.169636 -0.013066 0.123248
v 0.209682 -0.013066 0.000000
v 0.091520 0.361078 -0.080462
v 0.023076 0.361078 -0.130190
v -0.061527 0.361078 -0.130190
v -0.129971 0.361078 -0.080462
v -0.156115 0.361078 0.000000
v -0.129971 0.361078 0.080462
v -0.061527 0.361078 0.130190
v 0.023076 0.361078 0.130190
v 0.091520 0.361078 0.080462
v 0.117664 0.361078 -0.000000
v 0.134582 0.200755 -0.097780
v 0.051406 0.200755 -0.158211
v -0.051406 0.200755 -0.158211
v -0.134582 0.200755 -0.097780
v -0.166353 0.200755 0.000000
v -0.134582 0.200755 0.097780
v -0.051406 0.200755 0.158211
v 0.051406 0.200755 0.158211
v 0.134582 0.200755 0.097780
v 0.166353 0.200755 -0.000000
v 0.155970 0.017833 -0.113319
v 0.059575 0.017833 -0.183353
v -0.059575 0.017833 -0.183353
v -0.155970 0.017833 -0.113319
v -0.192789 0.017833 0.000000
v -0.155970 0.017833 0.113319
v -0.059575 0.017833 0.183353
v 0.059575 0.017833 0.183353
v 0.155970 0.017833 0.113319
v 0.192789 0.017833 0.000000
v -0.064795 -0.013066 0.000000
v 0.064795 -0.013066 -0.000000
v -0.061527 0.361078 0.000000
v 0.023076 0.361078 -0.000000
vt 0.749844 0.215856
vt 0.000000 0.519860
vt 0.708929 0.348270
vt 0.106089 0.330995
vt 0.021955 0.452837
vt 0.179087 0.286597
vt 0.246832 0.402537
vt 0.256280 0.248855
vt 0.079112 0.411520
vt 0.336744 0.218412
vt 0.371359 0.349049
vt 0.419405 0.195868
vt 0.078851 0.520049
vt 0.503285 0.182939
vt 0.078590 0.628578
vt 0.587269 0.181322
vt 0.572525 0.318560
vt 0.669965 0.192145
vt 0.641689 0.328256
vt 0.359380 0.497635
vt 0.480000 0.491406
vt 0.488574 0.657426
vt 0.282521 0.042804
vt 0.021633 0.586986
vt 0.800908 0.071016
vt 0.020548 0.208001
vt 0.104148 0.151667
vt 0.195302 0.106394
vt 0.291152 0.070673
vt 0.390659 0.044814
vt 0.493102 0.030314
vt 0.597158 0.029101
vt 0.700661 0.042600
vt 0.811085 0.043649
vt 0.000000 0.187147
vt 0.088825 0.126580
vt 0.398017 0.598519
vt 0.599159 0.000000
vt 0.680466 0.583933
vt 0.596460 0.651854
vt 0.149377 0.520219
vt 0.897974 0.296450
vt 0.895206 0.112961
vt 0.980480 0.166635
vt 0.825794 0.251286
vt 0.587886 0.485835
vt 0.708506 0.479606
vt 0.831931 0.416100
vt 0.149638 0.411690
vt 0.206595 0.453281
vt 0.706758 0.014063
vt 0.471427 0.325387
vt 0.387420 0.393308
vt 0.491212 0.001214
vt 0.385233 0.016162
vt 0.579312 0.319816
vt 0.183564 0.079630
vt 0.669869 0.378722
vt 1.000000 0.145168
vt 0.186608 0.436702
vt 0.909490 0.087463
vt 0.228228 0.520408
vt 0.149116 0.628747
vt 0.206273 0.587430
vt 0.503498 0.319722
vt 0.436248 0.330495
vt 0.772570 0.378174
vt 0.308497 0.373742
vn 0.796571 0.196257 -0.571803
vn 0.313013 0.174016 -0.933671
vn 0.282352 0.213362 -0.935283
vn 0.771830 0.269516 -0.575882
vn -0.296923 0.144941 -0.943837
vn -0.326024 0.142754 -0.934521
vn -0.799752 0.120119 -0.588190
vn -0.813925 0.085481 -0.574647
vn -0.993895 0.110331 0.000000
vn -0.997967 0.063727 0.000000
vn -0.799752 0.120119 0.588190
vn -0.813925 0.085481 0.574647
vn -0.296922 0.144941 0.943837
vn -0.326023 0.142754 0.934521
vn 0.313013 0.174016 0.933671
vn 0.282352 0.213362 0.935283
vn 0.796571 0.196257 0.571803
vn 0.771829 0.269516 0.575882
vn 0.978876 0.204456 0.000000
vn 0.956848 0.290588 0.000000
vn 0.000000 -1.000000 0.000000
vn 0.000000 -1.000000 0.000000
vn 0.000000 -1.000000 0.000000
vn 0.000000 -1.000000 0.000000
vn 0.000000 1.000000 0.000000
vn 0.000000 1.000000 0.000000
vn 0.000000 1.000000 0.000000
vn 0.000000 1.000000 0.000000
vn 0.000000 1.000000 -0.000000
vn 0.000000 1.000000 -0.000000
vn 0.790909 0.210393 -0.574629
vn 0.302100 0.210393 -0.929769
vn -0.302100 0.210393 -0.929769
vn -0.790909 0.210393 -0.574629
vn -0.977617 0.210393 0.000000
vn -0.790909 0.210393 0.574629
vn -0.302100 0.210393 0.929769
vn 0.302100 0.210393 0.929769
vn 0.790909 0.210393 0.574629
vn 0.977617 0.210393 0.000000
vn 0.709855 0.479707 -0.515740
vn 0.271140 0.479706 -0.834485
vn -0.271141 0.479706 -0.834485
vn -0.709855 0.479707 -0.515740
vn -0.877429 0.479707 0.000000
vn -0.709855 0.479706 0.515740
vn -0.271140 0.479706 0.834485
vn 0.271140 0.479706 0.834485
vn 0.709855 0.479707 0.515740
vn 0.877429 0.479707 0.000000
vn 0.000000 -1.000000 0.000000
vn 0.000000 -1.000000 0.000000
vn 0.000000 -1.000000 -0.000000
vn 0.000000 -1.000000 -0.000000
vn 0.000000 -1.000000 0.000000
vn 0.000000 -1.000000 0.000000
vn 0.000000 -1.000000 -0.000000
vn 0.000000 -1.000000 -0.000000
vn 0.000000 1.000000 0.000000
vn 0.000000 1.000000 0.000000
vn 0.000000 1.000000 0.000000
vn 0.000000 1.000000 0.000000
vn 0.000000 1.000000 -0.000000
vn 0.000000 1.000000 -0.000000
s 1
g pCylinder9
usemtl initialShadingGroup
f 21/1/1 22/45/2 12/67/3 11/3/4
f 22/45/2 23/42/5 13/48/6 12/67/3
f 23/4/5 24/6/7 14/7/8 13/60/6
f 24/6/7 25/8/9 15/68/10 14/7/8
f 25/8/9 26/10/11 16/11/12 15/68/10
f 26/10/11 27/12/13 17/66/14 16/11/12
f 27/12/13 28/14/15 18/65/16 17/66/14
f 28/14/15 29/16/17 19/17/18 18/65/16
f 29/16/17 30/18/19 20/19/20 19/17/18
f 30/18/19 21/1/1 11/3/4 20/19/20
s 2
f 5/20/21 41/21/22 7/22/23 6/37/24
s 3
f 15/2/25 16/5/26 17/9/27 43/13/28
f 15/2/25 43/13/28 13/15/29 14/24/30
s 1
f 31/25/31 32/43/32 22/45/2 21/1/1
f 32/43/32 33/44/33 23/42/5 22/45/2
f 33/26/33 34/27/34 24/6/7 23/4/5
f 34/27/34 35/28/35 25/8/9 24/6/7
f 35/28/35 36/29/36 26/10/11 25/8/9
f 36/29/36 37/30/37 27/12/13 26/10/11
f 37/30/37 38/31/38 28/14/15 27/12/13
f 38/31/38 39/32/39 29/16/17 28/14/15
f 39/32/39 40/33/40 30/18/19 29/16/17
f 40/33/40 31/25/31 21/1/1 30/18/19
f 1/34/41 2/61/42 32/43/32 31/25/31
f 2/61/42 3/59/43 33/44/33 32/43/32
f 3/35/43 4/36/44 34/27/34 33/26/33
f 4/36/44 5/57/45 35/28/35 34/27/34
f 5/57/45 6/23/46 36/29/36 35/28/35
f 6/23/46 7/55/47 37/30/37 36/29/36
f 7/55/47 8/54/48 38/31/38 37/30/37
f 8/54/48 9/38/49 39/32/39 38/31/38
f 9/38/49 10/51/50 40/33/40 39/32/39
f 10/51/50 1/34/41 31/25/31 40/33/40
s 2
f 9/39/51 8/40/52 42/46/53 10/47/54
f 41/21/22 42/46/53 8/40/52 7/22/23
f 3/52/55 41/21/22 5/20/21 4/53/56
f 2/56/57 42/46/53 41/21/22 3/52/55
f 10/47/54 42/46/53 2/56/57 1/58/58
s 3
f 44/41/59 18/49/60 19/50/61 20/62/62
f 12/63/63 44/41/59 20/62/62 11/64/64
f 13/15/29 43/13/28 44/41/59 12/63/63
f 43/13/28 17/9/27 18/49/60 44/41/59
