# This file uses centimeters as units for non-parametric coordinates.

mtllib Zinc.mtl
g default
v -0.367467 0.000000 1.209648
v -0.310346 0.041569 1.209648
v -0.253226 0.000000 1.209648
v -0.196106 0.041569 1.209648
v -0.138986 0.000000 1.209648
v -0.081866 0.041569 1.209648
v -0.024746 0.000000 1.209648
v 0.032375 0.041569 1.209648
v 0.089495 0.000000 1.209648
v 0.146615 0.041569 1.209648
v 0.203735 0.000000 1.209648
v 0.260855 0.041569 1.209648
v 0.317976 0.000000 1.209648
v 0.375096 0.041569 1.209648
v 0.432216 0.000000 1.209648
v -0.367467 0.000000 -1.209648
v -0.310346 0.041569 -1.209648
v -0.253226 0.000000 -1.209648
v -0.196106 0.041569 -1.209648
v -0.138986 0.000000 -1.209648
v -0.081866 0.041569 -1.209648
v -0.024746 0.000000 -1.209648
v 0.032375 0.041569 -1.209648
v 0.089495 0.000000 -1.209648
v 0.146615 0.041569 -1.209648
v 0.203735 0.000000 -1.209648
v 0.260855 0.041569 -1.209648
v 0.317976 0.000000 -1.209648
v 0.375096 0.041569 -1.209648
v 0.432216 0.000000 -1.209648
v -0.310346 0.047988 1.209648
v -0.310346 0.047988 -1.209648
v -0.372138 0.006419 -1.209648
v -0.372138 0.006419 1.209648
v -0.253226 0.006419 1.209648
v -0.253226 0.006419 -1.209648
v -0.196106 0.047988 1.209648
v -0.196106 0.047988 -1.209648
v -0.138986 0.006419 1.209648
v -0.138986 0.006419 -1.209648
v -0.081866 0.047988 1.209648
v -0.081866 0.047988 -1.209648
v -0.024746 0.006419 1.209648
v -0.024746 0.006419 -1.209648
v 0.032375 0.047988 1.209648
v 0.032375 0.047988 -1.209648
v 0.089495 0.006419 1.209648
v 0.089495 0.006419 -1.209648
v 0.146615 0.047988 1.209648
v 0.146615 0.047988 -1.209648
v 0.203735 0.006419 1.209648
v 0.203735 0.006419 -1.209648
v 0.260855 0.047988 1.209648
v 0.260855 0.047988 -1.209648
v 0.317976 0.006419 1.209648
v 0.317976 0.006419 -1.209648
v 0.375096 0.047988 1.209648
v 0.375096 0.047988 -1.209648
v 0.436888 0.006419 1.209648
v 0.436888 0.006419 -1.209648
vt 0.564900 0.007075
vt 0.559090 0.957711
vt 0.529857 0.957572
vt 0.535669 0.006846
vt 0.592601 0.007167
vt 0.586794 0.957971
vt 0.620298 0.007430
vt 0.614497 0.958061
vt 0.647997 0.007521
vt 0.642199 0.958321
vt 0.675694 0.007784
vt 0.669901 0.958411
vt 0.703392 0.007877
vt 0.697601 0.958673
vt 0.731090 0.008143
vt 0.725300 0.958765
vt 0.758790 0.008235
vt 0.752998 0.959030
vt 0.786489 0.008497
vt 0.780697 0.959123
vt 0.814191 0.008586
vt 0.808394 0.959387
vt 0.841893 0.008846
vt 0.836092 0.959478
vt 0.869596 0.008936
vt 0.863790 0.959740
vt 0.897300 0.009197
vt 0.891491 0.959832
vt 0.926532 0.009335
vt 0.920722 0.960062
vt 0.564963 0.005063
vt 0.535841 0.003562
vt 0.526738 0.957553
vt 0.559128 0.959721
vt 0.592617 0.005005
vt 0.586782 0.960135
vt 0.620310 0.005501
vt 0.614484 0.959991
vt 0.648011 0.005352
vt 0.642186 0.960490
vt 0.675706 0.005854
vt 0.669890 0.960339
vt 0.703406 0.005709
vt 0.697588 0.960839
vt 0.731102 0.006215
vt 0.725289 0.960693
vt 0.758802 0.006069
vt 0.752985 0.961199
vt 0.786500 0.006569
vt 0.780684 0.961053
vt 0.814204 0.006418
vt 0.808380 0.961555
vt 0.841906 0.006916
vt 0.836081 0.961406
vt 0.869609 0.006772
vt 0.863774 0.961902
vt 0.897263 0.007186
vt 0.891427 0.961845
vt 0.929653 0.009354
vt 0.920549 0.963346
vt 0.074990 0.975274
vt 0.923841 0.960080
vt 0.073156 0.025476
vt 0.926405 0.006066
vt 0.461441 0.024726
vt 0.532549 0.006826
vt 0.463274 0.974524
vt 0.529985 0.960841
vt 0.102725 0.975220
vt 0.130459 0.975167
vt 0.158194 0.975113
vt 0.185928 0.975060
vt 0.213663 0.975006
vt 0.241398 0.974953
vt 0.269132 0.974899
vt 0.296867 0.974845
vt 0.324601 0.974792
vt 0.352336 0.974738
vt 0.380071 0.974685
vt 0.407805 0.974631
vt 0.435540 0.974578
vt 0.100891 0.025422
vt 0.128626 0.025369
vt 0.156360 0.025315
vt 0.184095 0.025262
vt 0.211829 0.025208
vt 0.239564 0.025155
vt 0.267299 0.025101
vt 0.295033 0.025048
vt 0.322768 0.024994
vt 0.350502 0.024940
vt 0.378237 0.024887
vt 0.405972 0.024833
vt 0.433706 0.024780
vn 0.000000 1.000000 0.000000
vn 0.000000 1.000000 0.000000
vn -0.558173 0.829724 0.000000
vn -0.558173 0.829724 0.000000
vn 0.000000 1.000000 0.000000
vn 0.000000 1.000000 0.000000
vn 0.000000 1.000000 0.000000
vn 0.000000 1.000000 0.000000
vn 0.000000 1.000000 0.000000
vn 0.000000 1.000000 0.000000
vn 0.000000 1.000000 0.000000
vn 0.000000 1.000000 0.000000
vn 0.000000 1.000000 0.000000
vn 0.000000 1.000000 0.000000
vn 0.000000 1.000000 0.000000
vn 0.000000 1.000000 0.000000
vn 0.000000 1.000000 0.000000
vn 0.000000 1.000000 0.000000
vn -0.000000 1.000000 0.000000
vn -0.000000 1.000000 0.000000
vn -0.000000 1.000000 0.000000
vn -0.000000 1.000000 0.000000
vn 0.000000 1.000000 0.000000
vn 0.000000 1.000000 0.000000
vn 0.000000 1.000000 0.000000
vn 0.000000 1.000000 0.000000
vn 0.000000 1.000000 0.000000
vn 0.000000 1.000000 0.000000
vn 0.558174 0.829724 0.000000
vn 0.558174 0.829724 0.000000
vn 0.000000 -1.000000 0.000000
vn 0.588419 -0.808556 0.000000
vn 0.588419 -0.808556 0.000000
vn 0.000000 -1.000000 0.000000
vn 0.000000 -1.000000 0.000000
vn 0.000000 -1.000000 0.000000
vn 0.000000 -1.000000 0.000000
vn 0.000000 -1.000000 0.000000
vn -0.000000 -1.000000 0.000000
vn -0.000000 -1.000000 0.000000
vn -0.000000 -1.000000 0.000000
vn -0.000000 -1.000000 0.000000
vn -0.000000 -1.000000 0.000000
vn -0.000000 -1.000000 0.000000
vn -0.000000 -1.000000 0.000000
vn -0.000000 -1.000000 0.000000
vn 0.000000 -1.000000 0.000000
vn 0.000000 -1.000000 0.000000
vn 0.000000 -1.000000 0.000000
vn 0.000000 -1.000000 0.000000
vn 0.000000 -1.000000 0.000000
vn 0.000000 -1.000000 0.000000
vn 0.000000 -1.000000 0.000000
vn 0.000000 -1.000000 0.000000
vn -0.000000 -1.000000 0.000000
vn -0.000000 -1.000000 0.000000
vn -0.000000 -1.000000 0.000000
vn -0.000000 -1.000000 0.000000
vn -0.588420 -0.808556 0.000000
vn -0.588420 -0.808556 0.000000
vn -0.000008 0.000000 -1.000000
vn -0.000011 0.000000 -1.000000
vn -0.000011 0.000000 -1.000000
vn -0.000008 0.000000 -1.000000
vn -0.808555 -0.588421 0.000000
vn -0.808555 -0.588421 0.000000
vn -0.808555 -0.588421 0.000000
vn -0.808555 -0.588421 0.000000
vn -0.000005 0.000000 1.000000
vn -0.000001 0.000000 1.000000
vn -0.000001 0.000000 1.000000
vn -0.000005 0.000000 1.000000
vn -0.000004 0.000000 -1.000000
vn -0.000004 0.000000 -1.000000
vn 0.000004 0.000000 1.000000
vn 0.000004 0.000000 1.000000
vn -0.000004 0.000000 -1.000000
vn -0.000004 0.000000 -1.000000
vn 0.000004 0.000000 1.000000
vn 0.000004 0.000000 1.000000
vn -0.000004 0.000000 -1.000000
vn -0.000004 0.000000 -1.000000
vn 0.000004 0.000000 1.000000
vn 0.000004 0.000000 1.000000
vn -0.000004 0.000000 -1.000000
vn -0.000004 0.000000 -1.000000
vn 0.000004 0.000000 1.000000
vn 0.000004 0.000000 1.000000
vn -0.000005 0.000000 -1.000000
vn -0.000005 0.000000 -1.000000
vn -0.000001 0.000000 1.000000
vn -0.000001 0.000000 1.000000
vn -0.000002 0.000000 -1.000000
vn -0.000002 0.000000 -1.000000
vn -0.000005 0.000000 1.000000
vn -0.000005 0.000000 1.000000
vn 0.000000 0.000000 -1.000000
vn -0.000000 0.000000 -1.000000
vn -0.000003 0.000000 1.000000
vn -0.000003 0.000000 1.000000
vn 0.000003 0.000000 -1.000000
vn 0.000003 0.000000 -1.000000
vn 0.000005 0.000000 1.000000
vn 0.000005 0.000000 1.000000
vn 0.000003 0.000000 -1.000000
vn 0.000003 0.000000 -1.000000
vn 0.000007 0.000000 1.000000
vn 0.000007 0.000000 1.000000
vn -0.000005 0.000000 -1.000000
vn -0.000005 0.000000 -1.000000
vn -0.000003 0.000000 1.000000
vn -0.000003 0.000000 1.000000
vn -0.000004 0.000000 -1.000000
vn -0.000004 0.000000 -1.000000
vn -0.000005 0.000000 1.000000
vn -0.000005 0.000000 1.000000
vn 0.000003 0.000000 -1.000000
vn 0.000003 0.000000 -1.000000
vn 0.000004 0.000000 1.000000
vn 0.000004 0.000000 1.000000
vn 0.808556 -0.588419 0.000000
vn 0.808556 -0.588419 0.000000
vn 0.808556 -0.588419 0.000000
vn 0.808556 -0.588419 0.000000
vn 0.000007 0.000000 -1.000000
vn 0.000007 0.000000 -1.000000
vn 0.000010 0.000000 1.000000
vn 0.000010 0.000000 1.000000
s 1
g pPlane8
usemtl initialShadingGroup
f 31/1/1 32/2/2 33/3/3 34/4/4
f 35/5/5 36/6/6 32/2/2 31/1/1
f 37/7/7 38/8/8 36/6/6 35/5/5
f 39/9/9 40/10/10 38/8/8 37/7/7
f 41/11/11 42/12/12 40/10/10 39/9/9
f 43/13/13 44/14/14 42/12/12 41/11/11
f 45/15/15 46/16/16 44/14/14 43/13/13
f 47/17/17 48/18/18 46/16/16 45/15/15
f 49/19/19 50/20/20 48/18/18 47/17/17
f 51/21/21 52/22/22 50/20/20 49/19/19
f 53/23/23 54/24/24 52/22/22 51/21/21
f 55/25/25 56/26/26 54/24/24 53/23/23
f 57/27/27 58/28/28 56/26/26 55/25/25
f 59/29/29 60/30/30 58/28/28 57/27/27
s 2
f 2/94/31 1/65/32 16/67/33 17/81/34
f 3/93/35 2/94/31 17/81/34 18/80/36
f 4/92/37 3/93/35 18/80/36 19/79/38
f 5/91/39 4/92/37 19/79/38 20/78/40
f 6/90/41 5/91/39 20/78/40 21/77/42
f 7/89/43 6/90/41 21/77/42 22/76/44
f 8/88/45 7/89/43 22/76/44 23/75/46
f 9/87/47 8/88/45 23/75/46 24/74/48
f 10/86/49 9/87/47 24/74/48 25/73/50
f 11/85/51 10/86/49 25/73/50 26/72/52
f 12/84/53 11/85/51 26/72/52 27/71/54
f 13/83/55 12/84/53 27/71/54 28/70/56
f 14/82/57 13/83/55 28/70/56 29/69/58
f 15/63/59 14/82/57 29/69/58 30/61/60
s 3
f 17/34/61 16/68/62 33/3/63 32/2/64
s off
f 16/33/65 1/66/66 34/4/67 33/3/68
s 4
f 1/32/69 2/31/70 31/1/71 34/4/72
s 3
f 18/36/73 17/34/61 32/2/64 36/6/74
s 4
f 2/31/70 3/35/75 35/5/76 31/1/71
s 3
f 19/38/77 18/36/73 36/6/74 38/8/78
s 4
f 3/35/75 4/37/79 37/7/80 35/5/76
s 3
f 20/40/81 19/38/77 38/8/78 40/10/82
s 4
f 4/37/79 5/39/83 39/9/84 37/7/80
s 3
f 21/42/85 20/40/81 40/10/82 42/12/86
s 4
f 5/39/83 6/41/87 41/11/88 39/9/84
s 3
f 22/44/89 21/42/85 42/12/86 44/14/90
s 4
f 6/41/87 7/43/91 43/13/92 41/11/88
s 3
f 23/46/93 22/44/89 44/14/90 46/16/94
s 4
f 7/43/91 8/45/95 45/15/96 43/13/92
s 3
f 24/48/97 23/46/93 46/16/94 48/18/98
s 4
f 8/45/95 9/47/99 47/17/100 45/15/96
s 3
f 25/50/101 24/48/97 48/18/98 50/20/102
s 4
f 9/47/99 10/49/103 49/19/104 47/17/100
s 3
f 26/52/105 25/50/101 50/20/102 52/22/106
s 4
f 10/49/103 11/51/107 51/21/108 49/19/104
s 3
f 27/54/109 26/52/105 52/22/106 54/24/110
s 4
f 11/51/107 12/53/111 53/23/112 51/21/108
s 3
f 28/56/113 27/54/109 54/24/110 56/26/114
s 4
f 12/53/111 13/55/115 55/25/116 53/23/112
s 3
f 29/58/117 28/56/113 56/26/114 58/28/118
s 4
f 13/55/115 14/57/119 57/27/120 55/25/116
s off
f 15/59/121 30/62/122 60/30/123 59/29/124
s 3
f 30/60/125 29/58/117 58/28/118 60/30/126
s 4
f 14/57/119 15/64/127 59/29/128 57/27/120
