# This file uses centimeters as units for non-parametric coordinates.

mtllib Tablestylizedlowobj_01_high.mtl
g default
v -0.067501 -1.000000 0.092501
v -0.067501 -0.992501 0.100000
v -0.075000 -0.992501 0.092501
v 0.075000 -0.992501 0.092501
v 0.067501 -0.992501 0.100000
v 0.067501 -1.000000 0.092501
v -0.075000 0.992501 0.092501
v -0.067501 0.992501 0.100000
v -0.067501 1.000000 0.092501
v 0.067501 1.000000 0.092501
v 0.067501 0.992501 0.100000
v 0.075000 0.992501 0.092501
v -0.075000 0.992501 -0.092501
v -0.067501 1.000000 -0.092501
v -0.067501 0.992501 -0.100000
v 0.067501 0.992501 -0.100000
v 0.067501 1.000000 -0.092501
v 0.075000 0.992501 -0.092501
v -0.075000 -0.992501 -0.092501
v -0.067501 -0.992501 -0.100000
v -0.067501 -1.000000 -0.092501
v 0.067501 -1.000000 -0.092501
v 0.067501 -0.992501 -0.100000
v 0.075000 -0.992501 -0.092501
vt 0.080466 0.064906
vt 0.003135 0.065274
vt 0.080464 0.061778
vt 0.086715 0.061760
vt 0.080307 0.002419
vt 0.080316 0.005543
vt 0.003135 0.005803
vt 0.003129 0.002678
vt 0.086559 0.002401
vt 0.919698 0.062829
vt 0.996872 0.062620
vt 0.913439 0.059721
vt 0.913296 0.003483
vt 0.919546 0.000338
vt 0.086920 0.145045
vt 0.996866 0.059495
vt 0.996866 0.003143
vt 1.000000 0.003130
vt 0.913808 0.211728
vt 0.087087 0.213756
vt 0.086935 0.151290
vt 0.087071 0.207510
vt 0.083948 0.207517
vt 0.086567 0.005525
vt 0.919690 0.059705
vt 0.919548 0.003466
vt 0.913657 0.149260
vt 0.913793 0.205482
vt 0.003135 0.062145
vt 0.087274 0.290799
vt 0.913998 0.288771
vt 0.086731 0.068007
vt 0.913454 0.065969
vt 0.913642 0.143014
vt 0.913289 0.000359
vt 1.000000 0.059482
vt 0.996866 0.000013
vt 0.083812 0.151298
vn -0.707108 -0.707105 0.000000
vn -0.707108 -0.707105 0.000000
vn -0.707108 -0.707105 0.000000
vn -0.707108 -0.707105 0.000000
vn 0.000000 -0.707104 0.707110
vn 0.000000 -0.707104 0.707110
vn 0.000000 -0.707104 0.707110
vn 0.000000 -0.707104 0.707110
vn -0.707107 0.000000 0.707107
vn -0.707107 0.000000 0.707107
vn -0.707107 0.000000 0.707107
vn -0.707107 0.000000 0.707107
vn 0.707108 -0.707105 0.000000
vn 0.707108 -0.707105 0.000000
vn 0.707108 -0.707105 0.000000
vn 0.707108 -0.707105 0.000000
vn 0.707107 0.000000 0.707107
vn 0.707107 0.000000 0.707107
vn 0.707107 0.000000 0.707107
vn 0.707107 0.000000 0.707107
vn -0.707108 0.707105 0.000000
vn -0.707108 0.707105 0.000000
vn -0.707108 0.707105 0.000000
vn -0.707108 0.707105 0.000000
vn 0.000000 0.707104 0.707110
vn 0.000000 0.707104 0.707110
vn 0.000000 0.707104 0.707110
vn 0.000000 0.707104 0.707110
vn 0.707108 0.707105 0.000000
vn 0.707108 0.707105 0.000000
vn 0.707108 0.707105 0.000000
vn 0.707108 0.707105 0.000000
vn -0.707107 0.000000 -0.707107
vn -0.707107 0.000000 -0.707107
vn -0.707107 0.000000 -0.707107
vn -0.707107 0.000000 -0.707107
vn 0.000000 0.707104 -0.707110
vn 0.000000 0.707104 -0.707110
vn 0.000000 0.707104 -0.707110
vn 0.000000 0.707104 -0.707110
vn 0.707107 0.000000 -0.707107
vn 0.707107 0.000000 -0.707107
vn 0.707107 0.000000 -0.707107
vn 0.707107 0.000000 -0.707107
vn 0.000000 -0.707104 -0.707110
vn 0.000000 -0.707104 -0.707110
vn 0.000000 -0.707104 -0.707110
vn 0.000000 -0.707104 -0.707110
vn 0.000000 0.000000 1.000000
vn 0.000000 0.000000 1.000000
vn 0.000000 0.000000 1.000000
vn 0.000000 0.000000 1.000000
vn 0.000000 1.000000 0.000000
vn 0.000000 1.000000 0.000000
vn 0.000000 1.000000 0.000000
vn 0.000000 1.000000 0.000000
vn 0.000000 0.000000 -1.000000
vn 0.000000 0.000000 -1.000000
vn 0.000000 0.000000 -1.000000
vn 0.000000 0.000000 -1.000000
vn 0.000000 -1.000000 0.000000
vn 0.000000 -1.000000 0.000000
vn 0.000000 -1.000000 0.000000
vn 0.000000 -1.000000 0.000000
vn 1.000000 0.000000 0.000000
vn 1.000000 0.000000 0.000000
vn 1.000000 0.000000 0.000000
vn 1.000000 0.000000 0.000000
vn -1.000000 0.000000 0.000000
vn -1.000000 0.000000 0.000000
vn -1.000000 0.000000 0.000000
vn -1.000000 0.000000 0.000000
vn -0.577350 -0.577348 0.577353
vn -0.577350 -0.577348 0.577353
vn -0.577350 -0.577348 0.577353
vn 0.577350 -0.577348 0.577353
vn 0.577350 -0.577348 0.577353
vn 0.577350 -0.577348 0.577353
vn -0.577350 0.577348 0.577353
vn -0.577350 0.577348 0.577353
vn -0.577350 0.577348 0.577353
vn 0.577350 0.577348 0.577353
vn 0.577350 0.577348 0.577353
vn 0.577350 0.577348 0.577353
vn -0.577350 0.577348 -0.577353
vn -0.577350 0.577348 -0.577353
vn -0.577350 0.577348 -0.577353
vn 0.577350 0.577348 -0.577353
vn 0.577350 0.577348 -0.577353
vn 0.577350 0.577348 -0.577353
vn -0.577350 -0.577348 -0.577353
vn -0.577350 -0.577348 -0.577353
vn -0.577350 -0.577348 -0.577353
vn 0.577350 -0.577348 -0.577353
vn 0.577350 -0.577348 -0.577353
vn 0.577350 -0.577348 -0.577353
s off
g pCube3
usemtl initialShadingGroup
f 1/3/1 3/1/2 19/2/3 21/29/4
f 2/4/5 1/3/6 6/6/7 5/24/8
f 3/32/9 2/4/10 8/12/11 7/33/12
f 4/5/13 6/6/14 22/7/15 24/8/16
f 5/24/17 4/9/18 12/35/19 11/13/20
f 7/10/21 9/25/22 14/16/23 13/11/24
f 9/25/25 8/12/26 11/13/27 10/26/28
f 10/26/29 12/14/30 18/37/31 17/17/32
f 13/34/33 15/27/34 20/21/35 19/15/36
f 15/36/37 14/16/38 17/17/39 16/18/40
f 16/28/41 18/19/42 24/20/43 23/22/44
f 21/38/45 20/21/46 23/22/47 22/23/48
f 2/4/49 5/24/50 11/13/51 8/12/52
f 9/25/53 10/26/54 17/17/55 14/16/56
f 15/27/57 16/28/58 23/22/59 20/21/60
f 21/29/61 22/7/62 6/6/63 1/3/64
f 4/30/65 24/20/66 18/19/67 12/31/68
f 19/15/69 3/32/70 7/33/71 13/34/72
f 1/3/73 2/4/74 3/32/75
f 4/9/76 5/24/77 6/6/78
f 7/33/79 8/12/80 9/25/81
f 10/26/82 11/13/83 12/35/84
f 13/11/85 14/16/86 15/36/87
f 16/18/88 17/17/89 18/37/90
f 19/15/91 20/21/92 21/38/93
f 22/23/94 23/22/95 24/20/96
