# This file uses centimeters as units for non-parametric coordinates.

mtllib Table_02.mtl
g default
v -0.229903 0.010619 0.046170
v -0.229903 -0.006997 0.046170
v 0.229892 0.010619 0.046170
v 0.229892 -0.006997 0.046170
v 0.187896 0.010619 -0.046170
v 0.187896 -0.006997 -0.046170
v -0.203443 0.010619 -0.046170
v -0.203443 -0.006997 -0.046170
v 0.079465 0.010619 0.037149
v 0.079465 -0.006997 0.037149
v 0.049862 -0.006997 -0.037149
v 0.049862 0.010619 -0.037149
v -0.096847 0.010619 0.046698
v -0.096847 -0.006997 0.046698
v -0.096847 -0.006997 -0.046698
v -0.096847 0.010619 -0.046698
vt 0.300700 0.333653
vt 0.263528 0.328052
vt 0.317382 0.019745
vt 0.352534 0.026570
vt 0.377450 0.000000
vt 0.528116 0.143794
vt 0.499757 0.151050
vt 0.484613 0.417573
vt 0.448517 0.413808
vt 0.400781 0.921755
vt 0.422376 0.940458
vt 0.233222 1.000000
vt 0.222396 0.964845
vt 0.098722 0.364451
vt 0.119598 0.080591
vt 0.248360 0.698254
vt 0.213464 0.693661
vt 0.024165 0.664560
vt 0.469992 0.724693
vt 0.434103 0.720389
vt 0.185889 0.961948
vt 0.000000 0.887541
vn 0.001613 0.000000 0.999999
vn 0.001613 0.000000 0.999999
vn -0.059854 0.000000 0.998207
vn -0.059854 0.000000 0.998207
vn 0.910278 0.000000 -0.413997
vn 0.910278 0.000000 -0.413997
vn 0.910278 0.000000 -0.413997
vn 0.910278 0.000000 -0.413997
vn -0.065206 0.000000 -0.997872
vn -0.065206 0.000000 -0.997872
vn 0.001851 0.000000 -0.999998
vn 0.001851 0.000000 -0.999998
vn -0.961312 0.000000 -0.275461
vn -0.961312 0.000000 -0.275461
vn -0.961312 0.000000 -0.275461
vn -0.961312 0.000000 -0.275461
vn 0.000000 -1.000000 0.000000
vn 0.000000 -1.000000 0.000000
vn 0.000000 -1.000000 0.000000
vn 0.000000 -1.000000 0.000000
vn 0.000000 1.000000 0.000000
vn 0.000000 1.000000 0.000000
vn 0.000000 1.000000 0.000000
vn 0.000000 1.000000 0.000000
vn 0.029144 0.000000 0.999575
vn 0.029144 0.000000 0.999575
vn 0.001613 0.000000 0.999999
vn 0.001613 0.000000 0.999999
vn 0.000000 -1.000000 0.000000
vn 0.000000 -1.000000 0.000000
vn 0.000000 -1.000000 0.000000
vn 0.000000 -1.000000 0.000000
vn 0.001851 0.000000 -0.999998
vn 0.001851 0.000000 -0.999998
vn 0.035586 0.000000 -0.999367
vn 0.035586 0.000000 -0.999367
vn 0.000000 1.000000 0.000000
vn 0.000000 1.000000 0.000000
vn 0.000000 1.000000 0.000000
vn 0.000000 1.000000 0.000000
vn -0.003962 0.000000 0.999992
vn -0.003962 0.000000 0.999992
vn 0.029144 0.000000 0.999575
vn 0.029144 0.000000 0.999575
vn 0.000000 -1.000000 0.000000
vn 0.000000 -1.000000 0.000000
vn 0.000000 -1.000000 0.000000
vn 0.000000 -1.000000 0.000000
vn 0.035586 0.000000 -0.999367
vn 0.035586 0.000000 -0.999367
vn -0.004945 0.000000 -0.999988
vn -0.004945 0.000000 -0.999988
vn 0.000000 1.000000 0.000000
vn 0.000000 1.000000 0.000000
vn 0.000000 1.000000 0.000000
vn 0.000000 1.000000 0.000000
s off
g Table_02:polySurface6pCylinder6
usemtl Table_02:initialShadingGroup
f 9/1/1 10/2/2 4/3/3 3/4/4
f 3/4/5 4/5/6 6/6/7 5/7/8
f 5/7/9 6/6/10 11/8/11 12/9/12
f 7/10/13 8/11/14 2/12/15 1/13/16
f 10/2/17 11/14/18 6/15/19 4/3/20
f 12/9/21 9/1/22 3/4/23 5/7/24
f 13/16/25 14/17/26 10/2/27 9/1/28
f 14/17/29 15/18/30 11/14/31 10/2/32
f 12/9/33 11/8/34 15/19/35 16/20/36
f 16/20/37 13/16/38 9/1/39 12/9/40
f 1/13/41 2/21/42 14/17/43 13/16/44
f 2/21/45 8/22/46 15/18/47 14/17/48
f 16/20/49 15/19/50 8/11/51 7/10/52
f 7/10/53 1/13/54 13/16/55 16/20/56
