# This file uses centimeters as units for non-parametric coordinates.

mtllib Table_01.mtl
g default
v -0.075000 -0.010189 0.500000
v 0.075000 -0.010189 0.500000
v -0.075000 0.010189 0.500000
v 0.075000 0.010189 0.500000
v -0.075000 0.010189 -0.500000
v 0.075000 0.010189 -0.500000
v -0.075000 -0.010189 -0.500000
v 0.075000 -0.010189 -0.500000
vt 0.000000 0.020970
vt 0.179368 0.021460
vt 0.160561 0.021505
vt 0.019175 0.020977
vt 0.160564 0.978495
vt 0.019175 0.979024
vt 0.179365 0.978540
vt 0.320518 0.979330
vt 0.000000 0.979030
vt 0.021969 0.000000
vt 0.021969 1.000000
vt 0.320518 0.020670
vt 0.160953 1.000000
vt 0.160953 0.000000
vn 0.000000 0.000000 1.000000
vn 0.000000 0.000000 1.000000
vn 0.000000 0.000000 1.000000
vn 0.000000 0.000000 1.000000
vn 0.000000 1.000000 0.000000
vn 0.000000 1.000000 0.000000
vn 0.000000 1.000000 0.000000
vn 0.000000 1.000000 0.000000
vn 0.000000 0.000000 -1.000000
vn 0.000000 0.000000 -1.000000
vn 0.000000 0.000000 -1.000000
vn 0.000000 0.000000 -1.000000
vn 0.000000 -1.000000 0.000000
vn 0.000000 -1.000000 0.000000
vn 0.000000 -1.000000 0.000000
vn 0.000000 -1.000000 0.000000
vn 1.000000 0.000000 0.000000
vn 1.000000 0.000000 0.000000
vn 1.000000 0.000000 0.000000
vn 1.000000 0.000000 0.000000
vn -1.000000 0.000000 0.000000
vn -1.000000 0.000000 0.000000
vn -1.000000 0.000000 0.000000
vn -1.000000 0.000000 0.000000
s off
g pCube1
usemtl initialShadingGroup
f 1/10/1 2/14/2 4/3/3 3/4/4
f 3/4/5 4/3/6 6/5/7 5/6/8
f 5/6/9 6/5/10 8/13/11 7/11/12
f 7/8/13 8/7/14 2/2/15 1/12/16
f 2/2/17 8/7/18 6/5/19 4/3/20
f 7/9/21 1/1/22 3/4/23 5/6/24
