# Blender v2.83.0 OBJ File: ''
# www.blender.org
mtllib bolsalow3.mtl
o bolsa
v -0.113545 0.082426 0.298995
v -0.131448 -0.013113 0.326005
v -0.067273 -0.001271 0.401594
v -0.032801 0.094100 0.347044
v 0.000125 0.013302 0.411138
v 0.069830 0.014061 0.394325
v 0.131451 0.010620 0.325929
v 0.101090 0.095222 0.295901
v -0.141492 0.120022 -0.148093
v -0.025922 0.154344 -0.174662
v -0.101868 0.094474 -0.308096
v 0.141548 0.120222 0.121102
v 0.121239 0.128545 -0.207297
v -0.131405 0.008928 -0.336432
v -0.055167 -0.007995 -0.414669
v 0.042586 0.007804 -0.417480
v 0.041020 0.084856 -0.368444
v 0.131370 0.009930 -0.336379
v -0.107702 -0.091023 -0.312162
v -0.140773 -0.119844 -0.188743
v 0.040821 -0.086562 -0.369019
v 0.024537 -0.155201 -0.174209
v -0.010683 -0.157583 0.157155
v -0.141669 -0.121532 0.121158
v 0.144532 -0.119187 -0.011536
v 0.176475 0.013395 -0.198749
v 0.190411 -0.001757 -0.011821
v -0.190411 -0.001635 -0.011817
v -0.176475 0.013394 -0.198759
v -0.101411 -0.096637 0.296917
v 0.036044 -0.082353 0.370809
v 0.113807 -0.084666 0.298869
v 0.113458 -0.084865 -0.310113
v 0.146048 -0.108117 -0.189548
v -0.137579 0.119284 0.173759
v 0.021017 0.151590 0.166334
v 0.177152 0.011981 0.176544
v 0.143549 -0.108993 0.174382
v -0.177133 -0.015351 0.176493
vt 0.488499 0.407496
vt 0.394953 0.523770
vt 0.375000 0.403327
vt 0.375000 0.621014
vt 0.473518 0.633492
vt 0.625000 0.620441
vt 0.520508 0.547656
vt 0.614933 0.437179
vt 0.518448 0.622549
vt 0.387321 0.839926
vt 0.510956 0.842647
vt 0.495866 0.902710
vt 0.375000 0.893939
vt 0.806861 0.233524
vt 0.783074 0.130920
vt 0.875000 0.129559
vt 0.383026 0.117882
vt 0.397898 0.022956
vt 0.471830 0.123792
vt 0.516037 0.050161
vt 0.750909 0.124452
vt 0.784271 0.040333
vt 0.520455 0.703056
vt 0.386731 0.708696
vt 0.215603 0.034245
vt 0.249091 0.124505
vt 0.216926 0.130919
vt 0.485362 0.227188
vt 0.510395 0.346609
vt 0.388540 0.347564
vt 0.625000 0.356050
vt 0.717412 0.130123
vt 0.720596 0.037248
vt 0.396140 1.000000
vt 0.282585 0.117948
vt 0.279082 0.218443
vt 0.378740 0.203880
vt 0.500000 0.133175
vt 0.600672 0.228506
vt 0.528125 0.133843
vt 0.616982 0.130784
vt 0.625000 0.705968
vt 0.625000 0.839779
vt 0.729983 0.233882
vt 0.625000 0.869705
vt 0.125000 0.226163
vt 0.125000 0.128985
vt 0.222315 0.233935
vt 0.621260 0.045763
vt 0.875000 0.044032
vt 0.753879 0.020137
vt 0.125000 0.044045
vt 0.270017 0.015936
vt 0.625000 0.902279
vt 0.514908 1.000000
vt 0.625000 1.000000
vn -0.0914 0.9860 -0.1396
vn -0.4923 0.7026 -0.5138
vn -0.6697 0.7241 -0.1646
vn -0.8565 0.0762 -0.5105
vn -0.3668 -0.0338 -0.9297
vn 0.8359 0.0792 -0.5432
vn 0.1965 0.7214 -0.6640
vn 0.5553 0.8085 -0.1946
vn 0.2742 0.0942 -0.9571
vn -0.6890 -0.6979 -0.1955
vn 0.0807 -0.9836 -0.1615
vn 0.0049 -0.9904 0.1379
vn -0.6503 -0.7461 0.1427
vn 0.9781 0.1182 -0.1715
vn -0.8764 -0.0654 0.4771
vn -0.4998 -0.7598 0.4158
vn -0.4465 -0.0363 0.8941
vn 0.2092 -0.7122 0.6701
vn 0.9997 0.0255 -0.0025
vn 0.6928 -0.6791 -0.2426
vn 0.2350 -0.7123 -0.6613
vn -0.5952 -0.6617 -0.4559
vn -0.9999 0.0066 0.0082
vn -0.9816 0.0511 -0.1839
vn -0.1556 0.7789 0.6075
vn 0.0486 0.9907 0.1271
vn -0.6761 0.7231 0.1412
vn 0.7108 0.6940 0.1142
vn 0.9831 0.0582 0.1736
vn 0.6763 -0.6997 0.2301
vn -0.9747 -0.0816 0.2080
vn -0.6862 0.6093 0.3973
vn 0.0465 0.1687 0.9846
vn 0.5515 0.7362 0.3923
vn 0.4787 0.1669 0.8620
vn 0.8667 0.0345 0.4977
vn 0.6283 -0.6448 -0.4353
vn 0.6783 -0.7342 -0.0310
vn 0.6240 -0.6704 0.4015
usemtl initialShadingGroup
s 1
f 10/1/1 11/2/2 9/3/3
f 14/4/4 11/2/2 15/5/5
f 18/6/6 17/7/7 13/8/8
f 18/6/6 16/9/9 17/7/7
f 20/10/10 22/11/11 23/12/12
f 20/10/10 23/12/12 24/13/13
f 13/14/8 26/15/14 18/16/6
f 2/17/15 30/18/16 3/19/17
f 31/20/18 3/19/17 30/18/16
f 27/21/19 34/22/20 26/15/14
f 16/9/9 21/23/21 15/5/5
f 15/5/5 21/23/21 19/24/22
f 20/25/10 28/26/23 29/27/24
f 4/28/25 36/29/26 35/30/27
f 35/30/27 10/1/1 9/3/3
f 12/31/28 13/8/8 36/29/26
f 27/21/19 37/32/29 38/33/30
f 23/12/12 30/34/16 24/13/13
f 28/26/23 39/35/31 35/36/27
f 1/37/32 2/17/15 3/19/17
f 1/37/32 3/19/17 4/28/25
f 3/19/17 5/38/33 4/28/25
f 15/5/5 11/2/2 17/7/7 16/9/9
f 8/39/34 6/40/35 7/41/36
f 10/1/1 17/7/7 11/2/2
f 10/1/1 13/8/8 17/7/7
f 22/11/11 20/10/10 19/24/22 21/23/21
f 22/11/11 21/23/21 33/42/37 34/43/20
f 26/15/14 13/14/8 12/44/28 27/21/19
f 34/43/20 25/45/38 22/11/11
f 11/46/2 14/47/4 29/27/24 9/48/3
f 29/27/24 28/26/23 9/48/3
f 6/40/35 31/20/18 32/49/39 7/41/36
f 6/40/35 8/39/34 4/28/25 5/38/33
f 3/19/17 31/20/18 5/38/33
f 34/22/20 33/50/37 18/16/6 26/15/14
f 31/20/18 6/40/35 5/38/33
f 33/42/37 21/23/21 16/9/9 18/6/6
f 34/22/20 27/21/19 25/51/38
f 14/47/4 19/52/22 20/25/10 29/27/24
f 19/24/22 14/4/4 15/5/5
f 24/53/13 28/26/23 20/25/10
f 8/39/34 7/41/36 37/32/29 12/44/28
f 1/37/32 4/28/25 35/30/27
f 35/30/27 36/29/26 10/1/1
f 36/29/26 4/28/25 8/39/34
f 8/39/34 12/31/28 36/29/26
f 36/29/26 13/8/8 10/1/1
f 37/32/29 27/21/19 12/44/28
f 7/41/36 32/49/39 38/33/30 37/32/29
f 25/51/38 27/21/19 38/33/30
f 38/54/30 23/12/12 22/11/11 25/45/38
f 23/12/12 31/55/18 30/34/16
f 32/56/39 31/55/18 23/12/12 38/54/30
f 30/18/16 2/17/15 39/35/31 24/53/13
f 39/35/31 28/26/23 24/53/13
f 2/17/15 1/37/32 35/36/27 39/35/31
f 9/48/3 28/26/23 35/36/27
